<?xml version="1.0" encoding="UTF-8" standalone="no"?>
<svg width="256px" height="256px" viewBox="0 0 256 256" version="1.1" xmlns="http://www.w3.org/2000/svg" xmlns:xlink="http://www.w3.org/1999/xlink">
    <!-- Generator: Sketch 41.2 (35397) - http://www.bohemiancoding.com/sketch -->
    <title>48x48 copy 2</title>
    <desc>Created with Sketch.</desc>
    <defs></defs>
    <g id="Page-1" stroke="none" stroke-width="1" fill="none" fill-rule="evenodd">
        <g id="48x48-copy-2" fill="#000000">
            <g id="Group-2-Copy" transform="translate(0.000000, -127.000000)">
                <g id="squirrel" transform="translate(30.696991, 155.490298)">
                    <g id="Octicons" transform="translate(0.000000, -0.000000)">
                        <g id="squirrel">
                            <path d="M166.658799,0 C135.337283,0 109.968273,18.6912105 109.968273,41.6628509 C109.968273,69.3429641 117.054588,84.8951927 109.968273,128.412897 C109.968273,64.2064483 70.7100831,37.953145 53.2777463,37.953145 C53.9863779,30.8190952 46.4748831,28.5361992 46.4748831,28.5361992 C46.4748831,28.5361992 43.3569042,30.1056902 42.2230936,33.3873531 C38.3964831,28.9642422 34.28642,29.5349662 34.28642,29.5349662 L32.4439779,37.810464 C32.4439779,37.810464 6.50806207,46.9420477 6.22460944,83.7537447 C9.05913575,88.4622176 27.9087358,92.3146045 41.2310094,89.8890276 C53.8446515,90.6024325 50.7266726,101.160826 47.8921463,104.014446 C35.9871358,115.99965 24.9324831,99.8766973 10.7598515,99.8766973 C-3.41278004,99.8766973 -3.41278004,114.144797 10.7598515,114.144797 C24.9324831,114.144797 24.9324831,128.412897 53.2777463,128.412897 C9.4843147,145.534616 53.2777463,185.485295 53.2777463,185.485295 L39.1051147,185.485295 C24.9324831,185.485295 24.9324831,199.753395 24.9324831,199.753395 L109.968273,199.753395 C152.486167,199.753395 180.83143,185.485295 180.83143,150.243089 C180.83143,138.115204 174.737199,124.703191 166.658799,114.144797 C150.927178,93.3133715 169.918504,75.9062899 180.83143,85.6085977 C191.744357,95.3109054 223.349325,99.8766973 223.349325,57.0723985 C223.349325,25.5398983 197.980315,0 166.658799,0 L166.658799,0 Z M32.0187989,71.3404981 C28.0504621,71.3404981 24.9324831,68.2015161 24.9324831,64.2064483 C24.9324831,60.2113804 28.0504621,57.0723985 32.0187989,57.0723985 C35.9871358,57.0723985 39.1051147,60.2113804 39.1051147,64.2064483 C39.1051147,68.2015161 35.9871358,71.3404981 32.0187989,71.3404981 L32.0187989,71.3404981 Z" id="Shape"></path>
                        </g>
                    </g>
                </g>
                <g id="noun_636935_cc">
                    <g id="Artboard-1-Copy-3">
                        <g id="Group" transform="translate(0.000000, 250.014038)">
                            <g transform="translate(0.000000, 0.000000)" id="Shape">
                                <path d="M41.7885805,10.2691575 L39.9958504,10.2691575 L4.18064899,10.2691575 L2.38791889,10.2691575 L2.38791889,7.98712251 L4.77165892,7.98712251 L39.4054375,7.98712251 L41.7885805,7.98712251 L41.7885805,10.2691575 Z M37.7291184,18.5506625 L37.6938966,18.8267888 L6.4826028,18.8267888 L6.44738099,18.5506625 L5.68205299,12.5511925 L38.4944464,12.5511925 L37.7291184,18.5506625 Z M37.2927262,39.3651038 L37.1876578,39.3651038 L36.415763,39.3651038 L35.0731556,39.3651038 L9.10394076,39.3651038 L7.16375666,39.3651038 L6.98943858,39.3651038 L6.88377317,39.3651038 L4.49585428,21.1088238 L5.37281749,21.1088238 L6.7739289,21.1088238 L37.4025705,21.1088238 L38.8036819,21.1088238 L39.6806451,21.1088238 L37.2927262,39.3651038 Z M33.1073014,54.7688401 L11.069198,54.7688401 L9.39466988,41.6471388 L34.7818295,41.6471388 L33.1073014,54.7688401 Z M7.80192798,2.282035 L36.3745714,2.282035 L37.4145101,5.70508751 L6.76198931,5.70508751 L7.80192798,2.282035 Z M42.9837339,5.70508751 L39.9009306,5.70508751 L38.4998192,1.09366527 C38.3159495,0.487214473 37.6336017,0 36.975133,0 L7.20136638,0 C6.54050983,0 5.85995295,0.489496508 5.67668017,1.09366527 L4.27556877,5.70508751 L1.19336246,5.70508751 C0.534893831,5.70508751 0,6.21797487 0,6.85066908 L0,11.4056109 C0,12.0365936 0.534296851,12.5511925 1.19336246,12.5511925 L3.27622471,12.5511925 L4.07677452,18.8267888 L2.98370465,18.8267888 C2.32642998,18.8267888 1.85720391,19.3334005 1.93899014,19.9581076 L4.6277868,40.5158199 C4.70957302,41.138245 5.30953764,41.6471388 5.96800628,41.6471388 L6.98943858,41.6471388 L8.81022673,55.9178447 C8.88962504,56.5414107 9.49018664,57.0508751 10.1516402,57.0508751 L34.0248592,57.0508751 C34.6857158,57.0508751 35.2862774,56.5431223 35.3662727,55.9178447 L37.1876578,41.6471388 L38.2090901,41.6471388 C38.8705436,41.6471388 39.4669264,41.140527 39.5487126,40.5158199 L42.2375093,19.9581076 C42.3192955,19.3356826 41.8512634,18.8267888 41.1927948,18.8267888 L40.0997249,18.8267888 L40.9002747,12.5511925 L42.9837339,12.5511925 C43.6416056,12.5511925 44.1764994,12.0383051 44.1764994,11.4056109 L44.1764994,6.85066908 C44.1764994,6.2196864 43.6422026,5.70508751 42.9837339,5.70508751 L42.9837339,5.70508751 Z"></path>
                            </g>
                        </g>
                    </g>
                </g>
            </g>
        </g>
    </g>
</svg>